<svg fill="none" height="20" viewBox="0 0 20 20" width="20" xmlns="http://www.w3.org/2000/svg" xmlns:xlink="http://www.w3.org/1999/xlink"><clipPath id="a"><path d="m0 0h20v20h-20z"/></clipPath><clipPath id="b"><path d="m0 0h20v20h-20z"/></clipPath><g clip-path="url(#a)"><path d="m9.53834 1.60996c.1708-.41064.75256-.41064.92336 0l2.0661 4.96748c.072.17312.2348.29141.4217.30639l5.3628.42993c.4433.03554.6231.5888.2853.87813l-4.0859 3.50001c-.1424.122-.2046.3134-.1611.4957l1.2483 5.2332c.1032.4326-.3674.7746-.747.5427l-4.5913-2.8043c-.16-.0977-.36122-.0977-.52123 0l-4.59131 2.8043c-.37955.2319-.85018-.1101-.74698-.5427l1.24831-5.2332c.0435-.1823-.01869-.3737-.16108-.4957l-4.0859-3.50001c-.33777-.28933-.158-.84259.28532-.87813l5.36281-.42993c.1869-.01498.3497-.13327.42171-.30639z" fill="#ccdadc"/><g clip-path="url(#b)"><path d="m9.53834 1.60996c.1708-.41064.75256-.41064.92336 0l2.0661 4.96748c.072.17312.2348.29141.4217.30639l5.3628.42993c.4433.03554.6231.5888.2853.87813l-4.0859 3.50001c-.1424.122-.2046.3134-.1611.4957l1.2483 5.2332c.1032.4326-.3674.7746-.747.5427l-4.5913-2.8043c-.16-.0977-.36122-.0977-.52123 0l-4.59131 2.8043c-.37955.2319-.85018-.1101-.74698-.5427l1.24831-5.2332c.0435-.1823-.01869-.3737-.16108-.4957l-4.0859-3.50001c-.33777-.28933-.158-.84259.28532-.87813l5.36281-.42993c.1869-.01498.3497-.13327.42171-.30639z" fill="#ccdadc"/></g></g></svg>